<mxfile host="app.diagrams.net" modified="2024-03-31T03:26:05.262Z" agent="Mozilla/5.0 (Windows NT 10.0; Win64; x64) AppleWebKit/537.36 (KHTML, like Gecko) Chrome/123.0.0.0 Safari/537.36" etag="aKZcS5IYUN6rFHRlqP8W" version="24.0.7" type="github">
  <diagram name="페이지-1" id="aRdMTQnewycpoC4uknsR">
    <mxGraphModel dx="934" dy="579" grid="1" gridSize="10" guides="1" tooltips="1" connect="1" arrows="1" fold="1" page="1" pageScale="1" pageWidth="827" pageHeight="1169" math="0" shadow="0">
      <root>
        <mxCell id="0" />
        <mxCell id="1" parent="0" />
        <mxCell id="s_WcLcuwv6BzuaZ0lhy6-1" value="이용자" style="shape=umlActor;verticalLabelPosition=bottom;verticalAlign=top;html=1;outlineConnect=0;" vertex="1" parent="1">
          <mxGeometry x="90" y="220" width="30" height="60" as="geometry" />
        </mxCell>
        <mxCell id="s_WcLcuwv6BzuaZ0lhy6-4" value="게시판 서비스" style="shape=umlFrame;whiteSpace=wrap;html=1;pointerEvents=0;width=90;height=30;" vertex="1" parent="1">
          <mxGeometry x="170" y="30" width="580" height="700" as="geometry" />
        </mxCell>
        <mxCell id="s_WcLcuwv6BzuaZ0lhy6-5" value="회원가입" style="rounded=1;whiteSpace=wrap;html=1;arcSize=40;fontColor=#000000;fillColor=#ffffc0;strokeColor=#ff0000;" vertex="1" parent="1">
          <mxGeometry x="220" y="190" width="120" height="40" as="geometry" />
        </mxCell>
        <mxCell id="s_WcLcuwv6BzuaZ0lhy6-19" style="rounded=0;orthogonalLoop=1;jettySize=auto;html=1;exitX=0;exitY=0.5;exitDx=0;exitDy=0;endArrow=none;endFill=0;entryX=1;entryY=0.3333333333333333;entryDx=0;entryDy=0;entryPerimeter=0;" edge="1" parent="1" source="s_WcLcuwv6BzuaZ0lhy6-7" target="s_WcLcuwv6BzuaZ0lhy6-1">
          <mxGeometry relative="1" as="geometry">
            <mxPoint x="130" y="255" as="targetPoint" />
            <mxPoint x="210" y="285" as="sourcePoint" />
          </mxGeometry>
        </mxCell>
        <mxCell id="s_WcLcuwv6BzuaZ0lhy6-26" style="rounded=0;orthogonalLoop=1;jettySize=auto;html=1;exitX=1;exitY=0.5;exitDx=0;exitDy=0;entryX=0.5;entryY=1;entryDx=0;entryDy=0;dashed=1;" edge="1" parent="1" source="s_WcLcuwv6BzuaZ0lhy6-7" target="s_WcLcuwv6BzuaZ0lhy6-9">
          <mxGeometry relative="1" as="geometry" />
        </mxCell>
        <mxCell id="s_WcLcuwv6BzuaZ0lhy6-7" value="게시판 보기" style="rounded=1;whiteSpace=wrap;html=1;arcSize=40;fontColor=#000000;fillColor=#ffffc0;strokeColor=#ff0000;" vertex="1" parent="1">
          <mxGeometry x="220" y="300" width="120" height="40" as="geometry" />
        </mxCell>
        <mxCell id="s_WcLcuwv6BzuaZ0lhy6-20" style="rounded=0;orthogonalLoop=1;jettySize=auto;html=1;endArrow=none;endFill=0;exitX=0;exitY=0.5;exitDx=0;exitDy=0;entryX=1;entryY=0.3333333333333333;entryDx=0;entryDy=0;entryPerimeter=0;" edge="1" parent="1" source="s_WcLcuwv6BzuaZ0lhy6-8" target="s_WcLcuwv6BzuaZ0lhy6-1">
          <mxGeometry relative="1" as="geometry">
            <mxPoint x="130" y="330" as="targetPoint" />
          </mxGeometry>
        </mxCell>
        <mxCell id="s_WcLcuwv6BzuaZ0lhy6-27" style="rounded=0;orthogonalLoop=1;jettySize=auto;html=1;exitX=1;exitY=0.5;exitDx=0;exitDy=0;entryX=0.5;entryY=1;entryDx=0;entryDy=0;dashed=1;" edge="1" parent="1" source="s_WcLcuwv6BzuaZ0lhy6-8" target="s_WcLcuwv6BzuaZ0lhy6-9">
          <mxGeometry relative="1" as="geometry">
            <mxPoint x="460" y="180" as="targetPoint" />
          </mxGeometry>
        </mxCell>
        <mxCell id="s_WcLcuwv6BzuaZ0lhy6-8" value="게시글 보기" style="rounded=1;whiteSpace=wrap;html=1;arcSize=40;fontColor=#000000;fillColor=#ffffc0;strokeColor=#ff0000;" vertex="1" parent="1">
          <mxGeometry x="220" y="440" width="120" height="40" as="geometry" />
        </mxCell>
        <mxCell id="s_WcLcuwv6BzuaZ0lhy6-21" value="&amp;lt;&amp;lt;include&amp;gt;&amp;gt;" style="rounded=0;orthogonalLoop=1;jettySize=auto;html=1;exitX=1;exitY=0.5;exitDx=0;exitDy=0;entryX=0;entryY=0.5;entryDx=0;entryDy=0;endArrow=classic;endFill=1;dashed=1;" edge="1" parent="1" source="s_WcLcuwv6BzuaZ0lhy6-9" target="s_WcLcuwv6BzuaZ0lhy6-10">
          <mxGeometry relative="1" as="geometry" />
        </mxCell>
        <mxCell id="s_WcLcuwv6BzuaZ0lhy6-9" value="회원 로그인" style="rounded=1;whiteSpace=wrap;html=1;arcSize=40;fontColor=#000000;fillColor=#ffffc0;strokeColor=#ff0000;" vertex="1" parent="1">
          <mxGeometry x="360" y="70" width="120" height="40" as="geometry" />
        </mxCell>
        <mxCell id="s_WcLcuwv6BzuaZ0lhy6-10" value="인증" style="rounded=1;whiteSpace=wrap;html=1;arcSize=40;fontColor=#000000;fillColor=#ffffc0;strokeColor=#ff0000;" vertex="1" parent="1">
          <mxGeometry x="580" y="70" width="120" height="40" as="geometry" />
        </mxCell>
        <mxCell id="s_WcLcuwv6BzuaZ0lhy6-23" style="rounded=0;orthogonalLoop=1;jettySize=auto;html=1;exitX=0;exitY=0.5;exitDx=0;exitDy=0;entryX=1;entryY=0.5;entryDx=0;entryDy=0;dashed=1;" edge="1" parent="1" source="s_WcLcuwv6BzuaZ0lhy6-11" target="s_WcLcuwv6BzuaZ0lhy6-9">
          <mxGeometry relative="1" as="geometry">
            <mxPoint x="611" y="240" as="sourcePoint" />
            <mxPoint x="521" y="160" as="targetPoint" />
          </mxGeometry>
        </mxCell>
        <mxCell id="s_WcLcuwv6BzuaZ0lhy6-24" value="&amp;lt;&amp;lt;Extend&amp;gt;&amp;gt;" style="edgeLabel;html=1;align=center;verticalAlign=middle;resizable=0;points=[];" vertex="1" connectable="0" parent="s_WcLcuwv6BzuaZ0lhy6-23">
          <mxGeometry x="0.0647" y="-3" relative="1" as="geometry">
            <mxPoint as="offset" />
          </mxGeometry>
        </mxCell>
        <mxCell id="s_WcLcuwv6BzuaZ0lhy6-11" value="실패" style="rounded=1;whiteSpace=wrap;html=1;arcSize=40;fontColor=#000000;fillColor=#ffffc0;strokeColor=#ff0000;" vertex="1" parent="1">
          <mxGeometry x="580" y="130" width="120" height="40" as="geometry" />
        </mxCell>
        <mxCell id="s_WcLcuwv6BzuaZ0lhy6-28" style="rounded=0;orthogonalLoop=1;jettySize=auto;html=1;exitX=0;exitY=0.5;exitDx=0;exitDy=0;dashed=1;entryX=1;entryY=0.5;entryDx=0;entryDy=0;" edge="1" parent="1" source="s_WcLcuwv6BzuaZ0lhy6-12" target="s_WcLcuwv6BzuaZ0lhy6-7">
          <mxGeometry relative="1" as="geometry">
            <mxPoint x="319.9999999999999" y="440" as="targetPoint" />
          </mxGeometry>
        </mxCell>
        <mxCell id="s_WcLcuwv6BzuaZ0lhy6-12" value="게시판 정렬" style="rounded=1;whiteSpace=wrap;html=1;arcSize=40;fontColor=#000000;fillColor=#ffffc0;strokeColor=#ff0000;" vertex="1" parent="1">
          <mxGeometry x="440" y="270" width="120" height="40" as="geometry" />
        </mxCell>
        <mxCell id="s_WcLcuwv6BzuaZ0lhy6-29" style="rounded=0;orthogonalLoop=1;jettySize=auto;html=1;exitX=0;exitY=0.5;exitDx=0;exitDy=0;entryX=1;entryY=0.5;entryDx=0;entryDy=0;dashed=1;" edge="1" parent="1" source="s_WcLcuwv6BzuaZ0lhy6-13" target="s_WcLcuwv6BzuaZ0lhy6-7">
          <mxGeometry relative="1" as="geometry" />
        </mxCell>
        <mxCell id="s_WcLcuwv6BzuaZ0lhy6-13" value="게시판 검색" style="rounded=1;whiteSpace=wrap;html=1;arcSize=40;fontColor=#000000;fillColor=#ffffc0;strokeColor=#ff0000;" vertex="1" parent="1">
          <mxGeometry x="440" y="330" width="120" height="40" as="geometry" />
        </mxCell>
        <mxCell id="s_WcLcuwv6BzuaZ0lhy6-33" style="rounded=0;orthogonalLoop=1;jettySize=auto;html=1;exitX=0;exitY=0.5;exitDx=0;exitDy=0;entryX=1;entryY=0.5;entryDx=0;entryDy=0;dashed=1;" edge="1" parent="1" source="s_WcLcuwv6BzuaZ0lhy6-14" target="s_WcLcuwv6BzuaZ0lhy6-8">
          <mxGeometry relative="1" as="geometry" />
        </mxCell>
        <mxCell id="s_WcLcuwv6BzuaZ0lhy6-14" value="게시글 쓰기,수정, 삭제" style="rounded=1;whiteSpace=wrap;html=1;arcSize=40;fontColor=#000000;fillColor=#ffffc0;strokeColor=#ff0000;" vertex="1" parent="1">
          <mxGeometry x="430" y="450" width="140" height="40" as="geometry" />
        </mxCell>
        <mxCell id="s_WcLcuwv6BzuaZ0lhy6-34" style="rounded=0;orthogonalLoop=1;jettySize=auto;html=1;exitX=0;exitY=0.5;exitDx=0;exitDy=0;entryX=1;entryY=0.5;entryDx=0;entryDy=0;dashed=1;" edge="1" parent="1" source="s_WcLcuwv6BzuaZ0lhy6-15" target="s_WcLcuwv6BzuaZ0lhy6-8">
          <mxGeometry relative="1" as="geometry">
            <mxPoint x="339.9999999999998" y="460" as="targetPoint" />
          </mxGeometry>
        </mxCell>
        <mxCell id="s_WcLcuwv6BzuaZ0lhy6-15" value="댓글 보기, 쓰기,수정, 삭제" style="rounded=1;whiteSpace=wrap;html=1;arcSize=40;fontColor=#000000;fillColor=#ffffc0;strokeColor=#ff0000;" vertex="1" parent="1">
          <mxGeometry x="430" y="520" width="150" height="40" as="geometry" />
        </mxCell>
        <mxCell id="s_WcLcuwv6BzuaZ0lhy6-16" style="rounded=0;orthogonalLoop=1;jettySize=auto;html=1;entryX=1;entryY=0.3333333333333333;entryDx=0;entryDy=0;entryPerimeter=0;endArrow=none;endFill=0;exitX=0;exitY=0.5;exitDx=0;exitDy=0;" edge="1" parent="1" source="s_WcLcuwv6BzuaZ0lhy6-5" target="s_WcLcuwv6BzuaZ0lhy6-1">
          <mxGeometry relative="1" as="geometry" />
        </mxCell>
        <mxCell id="s_WcLcuwv6BzuaZ0lhy6-17" style="rounded=0;orthogonalLoop=1;jettySize=auto;html=1;entryX=1;entryY=0.3333333333333333;entryDx=0;entryDy=0;entryPerimeter=0;endArrow=none;endFill=0;exitX=0;exitY=0.5;exitDx=0;exitDy=0;" edge="1" parent="1" source="s_WcLcuwv6BzuaZ0lhy6-9" target="s_WcLcuwv6BzuaZ0lhy6-1">
          <mxGeometry relative="1" as="geometry" />
        </mxCell>
      </root>
    </mxGraphModel>
  </diagram>
</mxfile>
